<svg fill="#08C" xmlns="http://www.w3.org/2000/svg" xmlns:xlink="http://www.w3.org/1999/xlink" version="1.1" x="0px" y="0px" viewBox="0 0 100 100" enable-background="new 0 0 100 100" xml:space="preserve"><path fill-rule="evenodd" clip-rule="evenodd" d="M24.544,68.642C18.03,61.895,14,51.992,14,41.699  c0-10.295,4.03-19.033,10.544-25.78C31.06,9.175,40.06,5,50,5s18.94,4.175,25.456,10.919C81.969,22.666,86,31.404,86,41.699  c0,10.293-4.031,20.196-10.544,26.943L50,95L24.544,68.642z"></path><path fill-rule="evenodd" clip-rule="evenodd" fill="#08C" d="M72.321,52.654L71,53c0-3.313-2.687-6-6-6s-6,2.687-6,6  H41c0-3.313-2.687-6-6-6c-3.205,0-5.833,2.836-6,6h-1.5c-0.885,0-1.5-0.5-1.5-2c0-6,0.138-16.838,1.5-22c0.489-1.852,2.777-3,4.5-3  h39c1.5,0,3,1.5,3,3v21.773C74,51.811,73.247,52.654,72.321,52.654z M38,29h-6c-1.5,0-3,6-3,12h4.5H38V29z M41,29v12h9V29H41z   M53,29v12h9V29H53z M71,30.5c0-0.416-1.131-1.5-1.5-1.5H65v12h6V30.5z M35,50c1.658,0,3,1.342,3,3s-1.342,3-3,3s-3-1.342-3-3  S33.342,50,35,50z M65,50c1.658,0,3,1.342,3,3s-1.342,3-3,3s-3-1.342-3-3S63.342,50,65,50z"></path></svg>